<svg fill="#0d141a" viewBox="0 0 212.47400000000005 21.206" height="100%" width="100%" xmlns="http://www.w3.org/2000/svg"><path preserveAspectRatio="none" d="M6.55 16.49L2.44 16.49L2.44 13.32L6.46 13.32Q7.94 13.32 9.04 12.73Q10.14 12.14 10.74 11.02Q11.34 9.89 11.34 8.35L11.34 8.35Q11.34 6.81 10.73 5.70Q10.12 4.60 9.03 4.00Q7.94 3.40 6.46 3.40L6.46 3.40L2.32 3.40L2.32 0.25L6.51 0.25Q8.35 0.25 9.90 0.84Q11.45 1.43 12.62 2.52Q13.78 3.61 14.41 5.09Q15.04 6.58 15.04 8.37L15.04 8.37Q15.04 10.14 14.41 11.64Q13.78 13.13 12.63 14.21Q11.48 15.29 9.92 15.89Q8.37 16.49 6.55 16.49L6.55 16.49ZM3.61 16.49L0 16.49L0 0.25L3.61 0.25L3.61 16.49ZM25.16 12.17L17.02 12.17L17.02 9.09L25.16 9.09L25.16 12.17ZM34.52 16.49L30.41 16.49L30.41 13.32L34.43 13.32Q35.90 13.32 37.01 12.73Q38.11 12.14 38.71 11.02Q39.31 9.89 39.31 8.35L39.31 8.35Q39.31 6.81 38.70 5.70Q38.09 4.60 37.00 4.00Q35.90 3.40 34.43 3.40L34.43 3.40L30.29 3.40L30.29 0.25L34.48 0.25Q36.32 0.25 37.87 0.84Q39.42 1.43 40.58 2.52Q41.74 3.61 42.38 5.09Q43.01 6.58 43.01 8.37L43.01 8.37Q43.01 10.14 42.38 11.64Q41.74 13.13 40.59 14.21Q39.44 15.29 37.89 15.89Q36.34 16.49 34.52 16.49L34.52 16.49ZM31.58 16.49L27.97 16.49L27.97 0.25L31.58 0.25L31.58 16.49ZM50.37 16.74L50.37 16.74Q48.64 16.74 47.25 15.97Q45.86 15.20 45.06 13.87Q44.25 12.54 44.25 10.88L44.25 10.88Q44.25 9.22 45.06 7.91Q45.86 6.60 47.24 5.83Q48.62 5.06 50.37 5.06L50.37 5.06Q52.12 5.06 53.50 5.82Q54.88 6.58 55.68 7.90Q56.49 9.22 56.49 10.88L56.49 10.88Q56.49 12.54 55.68 13.87Q54.88 15.20 53.50 15.97Q52.12 16.74 50.37 16.74ZM50.37 13.55L50.37 13.55Q51.13 13.55 51.70 13.21Q52.28 12.88 52.59 12.27Q52.90 11.66 52.90 10.88L52.90 10.88Q52.90 10.10 52.58 9.51Q52.26 8.92 51.69 8.59Q51.13 8.26 50.37 8.26L50.37 8.26Q49.63 8.26 49.06 8.59Q48.48 8.92 48.16 9.52Q47.84 10.12 47.84 10.90L47.84 10.90Q47.84 11.66 48.16 12.27Q48.48 12.88 49.06 13.21Q49.63 13.55 50.37 13.55ZM69.14 16.49L65.62 16.49L65.62 10.12Q65.62 9.25 65.08 8.71Q64.54 8.16 63.71 8.16L63.71 8.16Q63.13 8.16 62.70 8.41Q62.26 8.65 62.01 9.10Q61.75 9.54 61.75 10.12L61.75 10.12L60.40 9.45Q60.40 8.14 60.97 7.15Q61.55 6.16 62.57 5.62Q63.59 5.08 64.88 5.08L64.88 5.08Q66.13 5.08 67.08 5.67Q68.03 6.26 68.59 7.22Q69.14 8.19 69.14 9.34L69.14 9.34L69.14 16.49ZM61.75 16.49L58.24 16.49L58.24 5.31L61.75 5.31L61.75 16.49ZM80.96 16.74L80.96 16.74Q78.96 16.74 77.52 16.09Q76.08 15.43 74.89 14.10L74.89 14.10L77.23 11.78Q78.02 12.67 78.97 13.17Q79.92 13.66 81.19 13.66L81.19 13.66Q82.34 13.66 82.97 13.25Q83.60 12.83 83.60 12.10L83.60 12.10Q83.60 11.43 83.19 11.02Q82.78 10.60 82.10 10.30Q81.42 10.00 80.60 9.73Q79.79 9.45 78.98 9.10Q78.18 8.74 77.50 8.20Q76.82 7.66 76.41 6.84Q75.99 6.03 75.99 4.78L75.99 4.78Q75.99 3.29 76.72 2.21Q77.44 1.13 78.73 0.56Q80.02 0 81.70 0L81.70 0Q83.40 0 84.81 0.60Q86.23 1.20 87.15 2.23L87.15 2.23L84.80 4.55Q84.06 3.79 83.32 3.43Q82.57 3.06 81.63 3.06L81.63 3.06Q80.68 3.06 80.13 3.42Q79.58 3.77 79.58 4.44L79.58 4.44Q79.58 5.06 79.99 5.44Q80.41 5.82 81.09 6.10Q81.77 6.37 82.58 6.65Q83.40 6.92 84.20 7.29Q85.01 7.66 85.69 8.22Q86.36 8.79 86.78 9.65Q87.19 10.51 87.19 11.78L87.19 11.78Q87.19 14.10 85.54 15.42Q83.88 16.74 80.96 16.74ZM95.61 16.72L95.61 16.72Q94.48 16.72 93.54 16.28Q92.60 15.85 92 15.08Q91.40 14.31 91.31 13.32L91.31 13.32L91.31 8.60Q91.40 7.61 92 6.81Q92.60 6.00 93.54 5.54Q94.48 5.08 95.61 5.08L95.61 5.08Q97.20 5.08 98.43 5.84Q99.66 6.60 100.36 7.91Q101.06 9.22 101.06 10.90L101.06 10.90Q101.06 12.58 100.36 13.89Q99.66 15.20 98.43 15.96Q97.20 16.72 95.61 16.72ZM92.64 21.21L89.17 21.21L89.17 5.31L92.69 5.31L92.69 8.19L92.12 10.90L92.64 13.62L92.64 21.21ZM94.97 13.55L94.97 13.55Q95.73 13.55 96.29 13.20Q96.85 12.86 97.17 12.26Q97.50 11.66 97.50 10.90L97.50 10.90Q97.50 10.12 97.17 9.52Q96.85 8.92 96.29 8.59Q95.73 8.26 94.99 8.26L94.99 8.26Q94.25 8.26 93.69 8.59Q93.13 8.92 92.81 9.52Q92.48 10.12 92.48 10.90L92.48 10.90Q92.48 11.66 92.79 12.26Q93.10 12.86 93.68 13.20Q94.25 13.55 94.97 13.55ZM108.24 16.74L108.24 16.74Q106.51 16.74 105.12 15.97Q103.73 15.20 102.93 13.87Q102.12 12.54 102.12 10.88L102.12 10.88Q102.12 9.22 102.93 7.91Q103.73 6.60 105.11 5.83Q106.49 5.06 108.24 5.06L108.24 5.06Q109.99 5.06 111.37 5.82Q112.75 6.58 113.55 7.90Q114.36 9.22 114.36 10.88L114.36 10.88Q114.36 12.54 113.55 13.87Q112.75 15.20 111.37 15.97Q109.99 16.74 108.24 16.74ZM108.24 13.55L108.24 13.55Q109.00 13.55 109.57 13.21Q110.15 12.88 110.46 12.27Q110.77 11.66 110.77 10.88L110.77 10.88Q110.77 10.10 110.45 9.51Q110.12 8.92 109.56 8.59Q109.00 8.26 108.24 8.26L108.24 8.26Q107.50 8.26 106.93 8.59Q106.35 8.92 106.03 9.52Q105.71 10.12 105.71 10.90L105.71 10.90Q105.71 11.66 106.03 12.27Q106.35 12.88 106.93 13.21Q107.50 13.55 108.24 13.55ZM119.62 16.49L116.10 16.49L116.10 5.31L119.62 5.31L119.62 16.49ZM119.62 10.35L119.62 10.35L118.15 9.20Q118.59 7.24 119.62 6.16Q120.66 5.08 122.50 5.08L122.50 5.08Q123.30 5.08 123.91 5.32Q124.52 5.57 124.98 6.07L124.98 6.07L122.89 8.72Q122.66 8.46 122.31 8.33Q121.97 8.19 121.53 8.19L121.53 8.19Q120.66 8.19 120.14 8.73Q119.62 9.27 119.62 10.35ZM131.15 16.49L127.63 16.49L127.63 0.69L131.15 0.69L131.15 16.49ZM133.68 8.30L125.10 8.30L125.10 5.31L133.68 5.31L133.68 8.30ZM139.06 16.77L139.06 16.77Q138.07 16.77 137.11 16.51Q136.16 16.26 135.34 15.79Q134.53 15.32 133.95 14.70L133.95 14.70L135.95 12.67Q136.51 13.27 137.26 13.60Q138.02 13.94 138.92 13.94L138.92 13.94Q139.54 13.94 139.87 13.75Q140.21 13.57 140.21 13.25L140.21 13.25Q140.21 12.83 139.81 12.62Q139.40 12.40 138.78 12.22Q138.16 12.05 137.47 11.84Q136.78 11.64 136.16 11.27Q135.54 10.90 135.15 10.25Q134.76 9.59 134.76 8.58L134.76 8.58Q134.76 7.50 135.31 6.70Q135.86 5.91 136.87 5.45Q137.89 4.99 139.24 4.99L139.24 4.99Q140.67 4.99 141.88 5.49Q143.08 5.98 143.84 6.95L143.84 6.95L141.84 8.97Q141.31 8.35 140.66 8.10Q140.00 7.84 139.38 7.84L139.38 7.84Q138.78 7.84 138.48 8.02Q138.18 8.19 138.18 8.51L138.18 8.51Q138.18 8.86 138.58 9.06Q138.97 9.27 139.59 9.43Q140.21 9.59 140.90 9.82Q141.59 10.05 142.21 10.44Q142.83 10.83 143.22 11.49Q143.61 12.14 143.61 13.20L143.61 13.20Q143.61 14.83 142.38 15.80Q141.15 16.77 139.06 16.77ZM152.10 16.49L148.35 16.49L154.79 0.25L158.06 0.25L164.43 16.49L160.61 16.49L155.73 3.01L157.04 3.01L152.10 16.49ZM160.86 13.55L152.01 13.55L152.01 10.60L160.86 10.60L160.86 13.55ZM169.53 16.49L166.01 16.49L166.01 5.31L169.53 5.31L169.53 16.49ZM169.53 10.35L169.53 10.35L168.06 9.20Q168.50 7.24 169.53 6.16Q170.57 5.08 172.41 5.08L172.41 5.08Q173.21 5.08 173.82 5.32Q174.43 5.57 174.89 6.07L174.89 6.07L172.80 8.72Q172.57 8.46 172.22 8.33Q171.88 8.19 171.44 8.19L171.44 8.19Q170.57 8.19 170.05 8.73Q169.53 9.27 169.53 10.35ZM181.03 16.74L181.03 16.74Q179.22 16.74 177.80 16.00Q176.39 15.25 175.58 13.91Q174.78 12.58 174.78 10.90L174.78 10.90Q174.78 9.22 175.57 7.90Q176.36 6.58 177.72 5.82Q179.08 5.06 180.78 5.06L180.78 5.06Q182.44 5.06 183.70 5.77Q184.97 6.49 185.69 7.75Q186.42 9.02 186.42 10.65L186.42 10.65Q186.42 10.95 186.38 11.28Q186.35 11.61 186.25 12.05L186.25 12.05L176.62 12.07L176.62 9.66L184.76 9.64L183.24 10.65Q183.22 9.68 182.94 9.05Q182.67 8.42 182.13 8.08Q181.59 7.75 180.80 7.75L180.80 7.75Q179.98 7.75 179.37 8.13Q178.76 8.51 178.42 9.20Q178.09 9.89 178.09 10.88L178.09 10.88Q178.09 11.87 178.45 12.57Q178.80 13.27 179.46 13.65Q180.11 14.03 181.01 14.03L181.01 14.03Q181.84 14.03 182.51 13.74Q183.17 13.46 183.68 12.88L183.68 12.88L185.61 14.81Q184.78 15.78 183.61 16.26Q182.44 16.74 181.03 16.74ZM199.02 16.49L195.50 16.49L195.50 10.12Q195.50 9.25 194.96 8.71Q194.42 8.16 193.59 8.16L193.59 8.16Q193.02 8.16 192.58 8.41Q192.14 8.65 191.89 9.10Q191.64 9.54 191.64 10.12L191.64 10.12L190.28 9.45Q190.28 8.14 190.85 7.15Q191.43 6.16 192.45 5.62Q193.48 5.08 194.76 5.08L194.76 5.08Q196.01 5.08 196.96 5.67Q197.91 6.26 198.47 7.22Q199.02 8.19 199.02 9.34L199.02 9.34L199.02 16.49ZM191.64 16.49L188.12 16.49L188.12 5.31L191.64 5.31L191.64 16.49ZM205.94 16.72L205.94 16.72Q204.40 16.72 203.19 15.96Q201.99 15.20 201.28 13.89Q200.58 12.58 200.58 10.90L200.58 10.90Q200.58 9.22 201.28 7.91Q201.99 6.60 203.19 5.84Q204.40 5.08 205.94 5.08L205.94 5.08Q207.07 5.08 207.98 5.52Q208.89 5.96 209.46 6.73Q210.04 7.50 210.11 8.49L210.11 8.49L210.11 13.32Q210.04 14.31 209.47 15.08Q208.91 15.85 207.99 16.28Q207.07 16.72 205.94 16.72ZM206.66 13.55L206.66 13.55Q207.78 13.55 208.47 12.80Q209.16 12.05 209.16 10.90L209.16 10.90Q209.16 10.12 208.85 9.52Q208.54 8.92 207.98 8.59Q207.41 8.26 206.68 8.26L206.68 8.26Q205.94 8.26 205.38 8.59Q204.81 8.92 204.48 9.52Q204.15 10.12 204.15 10.90L204.15 10.90Q204.15 11.66 204.47 12.26Q204.79 12.86 205.37 13.20Q205.94 13.55 206.66 13.55ZM212.47 16.49L209.02 16.49L209.02 13.48L209.55 10.76L209.02 8.05L209.02 5.31L212.47 5.31L212.47 16.49Z"></path></svg>